<mxfile host="app.diagrams.net" modified="2024-07-07T09:50:40.341Z" agent="Mozilla/5.0 (Macintosh; Intel Mac OS X 10_15_7) AppleWebKit/537.36 (KHTML, like Gecko) Chrome/125.0.0.0 Safari/537.36" version="24.6.4" etag="n7SY_IyNECGd3HG1CG_b" type="github">
  <diagram name="Page-1" id="OaYPCTQNpa4lAAGU-SxW">
    <mxGraphModel>
      <root>
        <mxCell id="0" />
        <mxCell id="1" parent="0" />
      </root>
    </mxGraphModel>
  </diagram>
</mxfile>
